HIERARCHY
ROOT Hips
{
	OFFSET 0.00000 0.00000 0.00000
	CHANNELS 6 Xposition Yposition Zposition Zrotation Yrotation Xrotation 
	JOINT LHipJoint
	{
		OFFSET 0 0 0
		CHANNELS 3 Zrotation Yrotation Xrotation
		JOINT LeftHip
		{
			OFFSET 1.77779 -1.88989 0.48267
			CHANNELS 3 Zrotation Yrotation Xrotation
			JOINT LeftKnee
			{
				OFFSET 2.53442 -6.96327 0.00000
				CHANNELS 3 Zrotation Yrotation Xrotation
				JOINT LeftAnkle
				{
					OFFSET 2.71068 -7.44755 0.00000
					CHANNELS 3 Zrotation Yrotation Xrotation
					JOINT LeftToe
					{
						OFFSET 0.17992 -0.49431 2.22524
						CHANNELS 3 Zrotation Yrotation Xrotation
						End Site
						{
							OFFSET 0.00000 -0.00000 1.14687
						}
					}
				}
			}
		}
	}
	JOINT RHipJoint
	{
		OFFSET 0 0 0
		CHANNELS 3 Zrotation Yrotation Xrotation
		JOINT RightHip
		{
			OFFSET -1.58469 -1.88989 0.48267
			CHANNELS 3 Zrotation Yrotation Xrotation
			JOINT RightKnee
			{
				OFFSET -2.60386 -7.15404 0.00000
				CHANNELS 3 Zrotation Yrotation Xrotation
				JOINT RightAnkle
				{
					OFFSET -2.73334 -7.50979 0.00000
					CHANNELS 3 Zrotation Yrotation Xrotation
					JOINT RightToe
					{
						OFFSET -0.25618 -0.70384 2.21822
						CHANNELS 3 Zrotation Yrotation Xrotation
						End Site
						{
							OFFSET -0.00000 -0.00000 1.16381
						}
					}
				}
			}
		}
	}
	JOINT lowerback
	{
		OFFSET 0 0 0
		CHANNELS 3 Zrotation Yrotation Xrotation
		JOINT Chest
		{
			OFFSET 0.03410 2.01612 -0.22230
			CHANNELS 3 Zrotation Yrotation Xrotation
			JOINT Chest2
			{
				OFFSET 0.03465 2.03012 0.00937
				CHANNELS 3 Zrotation Yrotation Xrotation
				JOINT lowerneck
				{
					OFFSET 0 0 0
					CHANNELS 3 Zrotation Yrotation Xrotation
					JOINT Neck
					{
						OFFSET -0.00219 1.70459 0.20857
						CHANNELS 3 Zrotation Yrotation Xrotation
						JOINT Head
						{
							OFFSET 0.02518 1.72339 -0.22179
							CHANNELS 3 Zrotation Yrotation Xrotation
							End Site
							{
								OFFSET 0.00282 1.74122 -0.09823
							}
						}
					}
				}
				JOINT LeftCollar
				{
					OFFSET 0 0 0
					CHANNELS 3 Zrotation Yrotation Xrotation
					JOINT LeftShoulder
					{
						OFFSET 3.36358 1.00547 -0.37661
CHANNELS 3 Zrotation Xrotation Yrotation
						JOINT LeftElbow
						{
OFFSET 0 -5.065070 0.000000
CHANNELS 3 Zrotation Xrotation Yrotation
							JOINT LeftWrist
							{
OFFSET 0 -3.601960 0.000000
CHANNELS 3 Zrotation Xrotation Yrotation
								JOINT lhand
								{
									OFFSET 0 0 0
CHANNELS 3 Zrotation Xrotation Yrotation
									JOINT LFingers
									{
OFFSET 0 -0.450350 0.000000
CHANNELS 3 Zrotation Xrotation Yrotation
										End Site
										{
OFFSET 0 -0.363080 0.000000
										}
									}
								}
								JOINT LThumb
								{
OFFSET 0 0.000000 0.000000
CHANNELS 3 Zrotation Xrotation Yrotation
									End Site
									{
OFFSET 0 -0.368620 0.368620
									}
								}
							}
						}
					}
				}
				JOINT RightCollar
				{
					OFFSET 0 0 0
					CHANNELS 3 Zrotation Yrotation Xrotation
					JOINT RightShoulder
					{
						OFFSET -3.50159 0.80383 -0.71526
CHANNELS 3 Zrotation Xrotation Yrotation
						JOINT RightElbow
						{
OFFSET 0 -5.363940 0.000000
CHANNELS 3 Zrotation Xrotation Yrotation
							JOINT RightWrist
							{
OFFSET 0 -3.580350 0.000000
CHANNELS 3 Zrotation Xrotation Yrotation
								JOINT rhand
								{
									OFFSET 0 0 0
CHANNELS 3 Zrotation Xrotation Yrotation
									JOINT RFingers
									{
OFFSET 0 -0.663750 0.000000
CHANNELS 3 Zrotation Xrotation Yrotation
										End Site
										{
OFFSET 0 -0.535130 0.000000
										}
									}
								}
								JOINT RThumb
								{
OFFSET 0 0.000000 0.000000
CHANNELS 3 Zrotation Xrotation Yrotation
									End Site
									{
OFFSET 0 -0.543300 0.543300
									}
								}
							}
						}
					}
				}
			}
		}
	}
}
MOTION
Frames: 10
Frame Time: 0.008333333333333333
0.512600 17.930700 -15.048100 -2.367900 4.010600 0.011100 0.000000 0.000000 0.000000 -11.447400 -5.106900 -16.770000 5.103100 13.498900 41.266000 0.549000 -4.160600 -13.199100 0.446000 -4.284700 -11.879000 0.000000 0.000000 0.000000 25.776800 9.677000 -11.785300 -4.016200 -12.181900 36.378600 -0.595500 -13.321200 -24.812800 -0.094800 -1.986200 5.467500 3.581300 -1.172600 10.632500 3.306800 -0.975700 1.377100 1.575400 -0.516000 -4.528800 -1.980100 -3.379400 -10.398700 -3.411900 -3.357400 33.015500 -1.420300 -2.155700 12.655100 0.000000 0.000000 0.000000 3.718200 1.428200 -23.982200 16.395900 -26.054500 3.818200 26.249000 1.544600 -20.831000 0.000000 0.000000 0.000000 -7.125000 0.000000 0.000000 -2.435900 52.951700 0.476800 0.000000 0.000000 0.000000 -1.816300 -5.785500 11.291100 -12.682000 -20.819500 -2.339100 -19.363700 -3.026800 -21.959600 0.000000 0.000000 0.000000 7.125000 0.000000 -0.000000 5.943300 6.942400 5.210100
0.741204 18.059355 -14.665023 -2.152487 2.848956 0.241051 0.000000 0.000000 0.000000 -9.941883 -9.616901 -17.905930 3.681754 11.723159 34.761066 0.560192 -3.325042 -13.395520 0.245576 -3.188554 -8.804148 0.000000 0.000000 0.000000 25.097852 8.919479 -8.982831 -3.351086 -11.242774 33.103164 -0.481170 -13.323536 -23.834226 -0.023209 -0.977206 2.686112 3.587974 -0.643253 11.248858 2.624305 -0.259890 1.085347 0.765492 -0.177090 -5.180686 -1.899683 -3.581809 -10.652738 -2.999465 -3.792554 33.650627 -1.360155 -2.286559 12.980146 0.000000 0.000000 0.000000 4.000644 2.599714 -23.562732 16.769649 -26.553093 3.983870 25.926981 2.474730 -21.604563 0.000000 0.000000 0.000000 -7.125000 0.000000 0.000000 -2.985540 53.720730 0.642910 0.000000 0.000000 0.000000 -2.424829 -5.634961 9.837423 -12.075988 -19.918450 -2.128101 -18.814069 0.028433 -16.936983 0.000000 0.000000 0.000000 7.125000 0.000000 0.000000 5.994867 12.219664 4.616310
1.276310 18.038518 -14.015514 -2.416721 0.690436 0.487167 0.000000 0.000000 0.000000 -10.226292 -12.726237 -16.295385 1.844048 8.533422 24.346489 0.129877 -4.081641 -6.594213 0.152502 -2.507058 -6.909690 0.000000 0.000000 0.000000 23.850364 9.140779 -5.871271 -3.071661 -10.810149 31.642303 -0.682802 -12.435623 -24.628844 -0.003026 0.167230 -0.459565 3.660742 -0.288375 10.659454 2.183895 0.158764 1.146439 0.194703 0.027353 -4.780022 -1.882339 -3.400862 -10.616475 -3.024371 -3.536847 32.976519 -1.318908 -2.180653 12.688029 0.000000 0.000000 0.000000 3.937306 2.617418 -22.221132 15.441637 -24.757715 3.408787 25.904271 2.272918 -19.853316 0.000000 0.000000 0.000000 -7.125000 0.000000 0.000000 -2.546160 51.833247 0.428139 0.000000 0.000000 0.000000 -3.545270 -5.049416 10.822285 -12.634722 -20.749711 -2.322254 -18.346726 -1.003320 -17.414430 0.000000 0.000000 0.000000 7.125000 0.000000 0.000000 6.325751 11.778403 4.932253
2.024035 18.048605 -13.310596 -0.306139 -3.233648 -0.232106 0.000000 0.000000 0.000000 -15.680371 -9.402826 -13.099121 1.904123 8.663400 24.747897 0.226570 -4.192327 -8.520478 0.143311 -2.439261 -6.721351 0.000000 0.000000 0.000000 18.930589 9.513317 -9.064262 -5.210803 -13.616233 41.723368 -0.487260 -12.242415 -22.709091 -0.387027 3.993565 -11.058785 1.133761 0.551392 10.535015 1.071913 0.905427 1.727732 0.350662 0.437330 -4.104855 -1.577616 -3.193020 -10.121924 -3.383054 -3.215248 33.319977 -1.464985 -2.055606 12.714231 0.000000 0.000000 0.000000 4.475995 1.734945 -22.721429 15.614152 -24.994594 3.481325 26.748040 4.483601 -23.940654 0.000000 0.000000 0.000000 -7.125000 0.000000 0.000000 -2.808520 56.393808 0.785132 0.000000 0.000000 0.000000 -2.940981 -5.441689 7.854861 -14.060210 -22.820684 -2.851425 -18.582584 -3.636110 -18.934171 0.000000 0.000000 0.000000 7.125000 0.000000 0.000000 6.249615 10.176002 5.074852
2.450813 18.141465 -12.739954 0.090887 -3.350892 -0.625119 0.000000 0.000000 0.000000 -18.389894 -7.437280 -10.246712 1.744599 8.312367 23.667096 0.305935 -4.219147 -9.846635 0.182844 -2.753886 -7.594378 0.000000 0.000000 0.000000 17.001384 5.620630 -20.894388 -8.466556 -16.451639 54.225808 -0.270944 -10.239970 -18.264381 -0.007846 0.547349 -1.504067 -0.639445 -0.057161 11.116235 1.032092 -0.104074 1.752683 1.451960 -0.036133 -4.398447 -1.641179 -2.665902 -10.167290 -3.849786 -2.281047 34.186919 -1.537920 -1.726530 13.103741 0.000000 0.000000 0.000000 6.541668 1.153068 -25.302101 15.963315 -25.470893 3.630193 27.717571 5.039677 -26.061488 0.000000 0.000000 0.000000 -7.125000 0.000000 0.000000 -2.468959 58.881446 0.838114 0.000000 0.000000 0.000000 -1.818578 -4.278493 12.529805 -16.062021 -25.604708 -3.672755 -18.566696 -5.359215 -20.549817 0.000000 0.000000 0.000000 7.125000 0.000000 0.000000 6.351563 8.510875 5.375749
2.435957 18.025116 -12.182076 -0.730864 -3.044942 -0.040845 0.000000 0.000000 0.000000 -17.701155 -8.317988 -10.882280 2.371460 9.600364 27.692048 0.537567 -3.340152 -13.113136 0.189622 -2.801724 -7.727388 0.000000 0.000000 0.000000 21.282832 6.930193 -20.303289 -4.732598 -13.076049 39.654029 -0.660463 -7.516248 -19.886118 -0.008234 -0.556222 1.528560 -0.957649 -0.111785 10.483832 1.169584 -0.203283 1.484915 1.786194 -0.078234 -4.322433 -1.874707 -2.750825 -10.124361 -3.486752 -2.470294 34.352353 -1.385564 -1.795885 13.174194 0.000000 0.000000 0.000000 8.787719 0.159575 -24.106367 16.797912 -26.590630 3.996495 27.149578 1.487587 -23.258053 0.000000 0.000000 0.000000 -7.125000 0.000000 0.000000 -2.166219 55.746859 0.576261 0.000000 0.000000 0.000000 0.002792 -3.256008 12.271096 -14.910315 -24.020926 -3.189335 -15.816922 -3.329816 -19.302154 0.000000 0.000000 0.000000 7.125000 0.000000 0.000000 8.068962 10.132277 6.584484
2.392504 18.022621 -11.827227 -0.791487 -4.105632 0.334742 0.000000 0.000000 0.000000 -17.277324 -7.111005 -11.522482 2.692257 10.179335 29.559538 0.630314 -4.753857 -14.139611 0.018602 -0.835156 -2.295608 0.000000 0.000000 0.000000 22.067576 8.467996 -17.306424 -4.232413 -12.463403 37.391709 -0.624960 -8.173442 -20.079741 -0.099658 -2.034304 5.600597 0.927371 -0.234507 10.558967 1.043663 -0.157224 1.428260 0.586405 -0.086417 -4.430714 -2.339616 -2.478326 -9.869290 -4.350495 -1.662431 34.865142 -1.543678 -1.617919 13.359362 0.000000 0.000000 0.000000 7.451229 -0.587264 -18.684540 17.527229 -27.547542 4.328370 27.221761 1.490643 -20.724510 0.000000 0.000000 0.000000 -7.125000 0.000000 0.000000 -1.403628 53.023113 0.277835 0.000000 0.000000 0.000000 -0.433172 -3.826356 13.840484 -13.932592 -22.638326 -2.802099 -16.685468 -1.093306 -17.115910 0.000000 0.000000 0.000000 7.125000 0.000000 0.000000 7.413643 12.270284 5.717812
2.574870 18.100646 -11.608106 -0.711679 -5.316472 0.538606 0.000000 0.000000 0.000000 -14.862907 -6.198854 -12.441935 3.287324 11.146168 32.774524 0.963664 -8.064093 -17.598483 0.027766 0.731168 2.010986 0.000000 0.000000 0.000000 21.481886 8.652486 -15.600383 -3.788911 -11.874003 35.287757 -0.595611 -8.085750 -19.703122 -0.043596 -1.347056 3.704192 1.582112 -0.464898 10.654597 1.539847 -0.366368 1.588124 0.764034 -0.196783 -4.317142 -2.201667 -2.671545 -9.333213 -3.999701 -2.156660 35.171927 -1.496901 -1.777844 13.367857 0.000000 0.000000 0.000000 4.751557 0.161887 -21.317574 17.272423 -27.215415 4.211284 26.378948 5.825356 -26.668857 0.000000 0.000000 0.000000 -7.125000 0.000000 0.000000 -4.237851 59.207713 1.470539 0.000000 0.000000 0.000000 -3.243126 -5.237806 12.369559 -14.734208 -23.774482 -3.118033 -19.731679 -5.416999 -20.568373 0.000000 0.000000 0.000000 7.125000 0.000000 0.000000 5.607307 8.329928 4.759368
3.077443 18.206756 -11.464963 -1.048161 -7.718547 0.586265 0.000000 0.000000 0.000000 -8.286349 -7.366389 -10.192760 3.029065 10.741934 31.414547 0.675952 -1.020638 -15.218449 0.004249 -0.413407 -1.135997 0.000000 0.000000 0.000000 20.157964 9.401659 -13.605320 -3.214257 -11.034155 32.395092 -0.504761 -7.245111 -17.988115 -0.013726 -0.757700 2.082329 1.620789 -0.646117 11.451420 1.756366 -0.572919 1.664938 1.007818 -0.299655 -4.677092 -1.614567 -3.103767 -9.963979 -3.913540 -3.001298 35.584973 -1.715200 -2.079034 13.659645 0.000000 0.000000 0.000000 3.634653 0.806449 -20.823022 16.859192 -26.671725 4.023901 29.829568 11.403344 -34.324930 0.000000 0.000000 0.000000 -7.125000 0.000000 0.000000 -4.250029 68.140304 2.365330 0.000000 0.000000 0.000000 -4.466849 -6.111029 11.642923 -15.979895 -25.493323 -3.637310 -20.616657 -7.669375 -18.410155 0.000000 0.000000 0.000000 7.125000 0.000000 0.000000 4.888086 10.459054 3.934340
4.086388 18.144199 -11.331237 -1.258906 -11.272062 1.196272 0.000000 0.000000 0.000000 -3.836648 -13.810921 -3.858742 1.410704 7.511681 21.240712 0.356085 -3.960090 -10.613720 0.240884 -3.156357 -8.714553 0.000000 0.000000 0.000000 16.518204 11.652143 -14.063656 -3.161812 -10.952341 32.119386 -0.545901 -5.600306 -17.123104 -0.036180 1.226130 -3.371234 1.927497 -0.466640 11.559858 1.764455 -0.301293 1.839169 0.801599 -0.171294 -4.557490 -1.680014 -3.131370 -9.605383 -3.526585 -3.219211 35.132910 -1.558807 -2.144038 13.385071 0.000000 0.000000 0.000000 3.606350 0.413413 -21.136060 16.736325 -26.508777 3.968904 27.579609 3.996412 -17.918600 0.000000 0.000000 0.000000 -7.125000 0.000000 0.000000 -0.458172 50.026679 0.040971 0.000000 0.000000 0.000000 -5.251218 -6.469828 11.009967 -15.677356 -25.081214 -3.508100 -22.296947 -5.623956 -13.497893 0.000000 0.000000 0.000000 7.125000 0.000000 0.000000 3.480888 15.453965 2.432008
